<?xml version="1.0" standalone="no"?><!DOCTYPE svg PUBLIC "-//W3C//DTD SVG 1.1//EN" "http://www.w3.org/Graphics/SVG/1.1/DTD/svg11.dtd"><svg t="1627357597929" class="icon" viewBox="0 0 1024 1024" version="1.1" xmlns="http://www.w3.org/2000/svg" p-id="15020" xmlns:xlink="http://www.w3.org/1999/xlink" width="200" height="200"><defs><style type="text/css">@font-face { font-family: feedback-iconfont; src: url("//at.alicdn.com/t/font_1031158_1uhr8ri0pk5.eot?#iefix") format("embedded-opentype"), url("//at.alicdn.com/t/font_1031158_1uhr8ri0pk5.woff2") format("woff2"), url("//at.alicdn.com/t/font_1031158_1uhr8ri0pk5.woff") format("woff"), url("//at.alicdn.com/t/font_1031158_1uhr8ri0pk5.ttf") format("truetype"), url("//at.alicdn.com/t/font_1031158_1uhr8ri0pk5.svg#iconfont") format("svg"); }
</style></defs><path d="M352.2 169.1h194c19.4 0 35.2-15.9 35.2-35.2v-0.4c0-19.4-15.9-35.2-35.2-35.2h-194c-19.4 0-35.2 15.9-35.2 35.2v0.4c0 19.4 15.8 35.2 35.2 35.2zM866.9 518.5h-35c-20.6 0-40 10-52 26.8l-18.7 26.2H572.8c-31.8 0-54.8 30.3-46.3 61l38.5 138c5.8 20.8 24.7 35.1 46.3 35.1h175.1c21.1 0 38.9-15.9 41.2-36.9l21.1-194.1c1-9.1 8.3-17.3 17.5-16.9 11.2 0.5 20.5-8.5 20.5-19.6-0.2-10.8-9-19.6-19.8-19.6z" p-id="15021" fill="#7dc5eb"></path><path d="M609 857.3m-35.4 0a35.4 35.4 0 1 0 70.8 0 35.4 35.4 0 1 0-70.8 0Z" p-id="15022" fill="#7dc5eb"></path><path d="M779.8 857.3m-35.4 0a35.4 35.4 0 1 0 70.8 0 35.4 35.4 0 1 0-70.8 0Z" p-id="15023" fill="#7dc5eb"></path><path d="M699.7 879.6c0.2-0.3 0.5-0.5 0.7-0.8h-0.7v0.8zM502.8 798.6l-44.1-157.9c-8.7-31-5.8-64.9 11.3-92.1 20.5-32.6 55.1-51.5 93-51.5h160.6V207.3c0-39.7-32.2-71.9-71.9-71.9H621c-0.9 37.5-31.8 67.9-69.5 67.9H336.4c-38.3 0-69.7-31.3-69.7-69.7h-58.2c-39.1 0-70.9 31.7-70.9 70.9v652.8c0 39.1 31.7 70.9 70.9 70.9H521c-6.3-12.6-10.1-26.7-10.1-41.7 0-17.5 5.1-33.6 13.3-47.7-9.6-11.5-17.2-25-21.4-40.2zM278.5 305.3h304.2c18.2 0 33.2 14.9 33.2 33.2s-14.9 33.2-33.2 33.2H278.5c-18.2 0-33.2-14.9-33.2-33.2s15-33.2 33.2-33.2z m135.3 326.4c0 17.5-14.3 31.9-31.9 31.9H277.2c-17.5 0-31.9-14.3-31.9-31.9v-6.3c0-17.5 14.3-31.9 31.9-31.9h104.7c17.5 0 31.9 14.3 31.9 31.9v6.3z m0-113.2H280.4c-19.3 0-35-15.8-35-35 0-19.3 15.8-35 35-35h133.4c19.3 0 35 15.8 35 35 0 19.3-15.7 35-35 35z" p-id="15024" fill="#7dc5eb"></path></svg>